<mxfile host="app.diagrams.net" modified="2024-03-18T23:39:29.809Z" agent="Mozilla/5.0 (Windows NT 10.0; Win64; x64) AppleWebKit/537.36 (KHTML, like Gecko) Chrome/122.0.0.0 Safari/537.36" etag="tV1zGn6FzkOTr1ceFEMq" version="24.0.2" type="github">
  <diagram id="FfINFIaC6GgeIE6CcGzY" name="Page-1">
    <mxGraphModel dx="1434" dy="940" grid="1" gridSize="10" guides="1" tooltips="1" connect="1" arrows="1" fold="1" page="1" pageScale="1" pageWidth="3600" pageHeight="2400" math="0" shadow="0">
      <root>
        <mxCell id="0" />
        <mxCell id="1" parent="0" />
        <mxCell id="VH4T3LfD6t6ZyNMmkm9G-38" value="" style="rounded=1;whiteSpace=wrap;html=1;fillColor=#dae8fc;strokeColor=#6c8ebf;" parent="1" vertex="1">
          <mxGeometry x="390" y="460" width="320" height="240" as="geometry" />
        </mxCell>
        <mxCell id="VH4T3LfD6t6ZyNMmkm9G-31" value="" style="rounded=1;whiteSpace=wrap;html=1;fillColor=#fff2cc;strokeColor=#d6b656;" parent="1" vertex="1">
          <mxGeometry x="118" y="460" width="260.5" height="240" as="geometry" />
        </mxCell>
        <mxCell id="VH4T3LfD6t6ZyNMmkm9G-12" style="edgeStyle=orthogonalEdgeStyle;rounded=0;orthogonalLoop=1;jettySize=auto;html=1;" parent="1" source="VH4T3LfD6t6ZyNMmkm9G-1" target="VH4T3LfD6t6ZyNMmkm9G-4" edge="1">
          <mxGeometry relative="1" as="geometry" />
        </mxCell>
        <mxCell id="VH4T3LfD6t6ZyNMmkm9G-1" value="" style="aspect=fixed;html=1;points=[];align=center;image;fontSize=12;image=img/lib/azure2/general/Management_Groups.svg;" parent="1" vertex="1">
          <mxGeometry x="570" y="40" width="66" height="64" as="geometry" />
        </mxCell>
        <mxCell id="VH4T3LfD6t6ZyNMmkm9G-3" value="" style="aspect=fixed;html=1;points=[];align=center;image;fontSize=12;image=img/lib/azure2/general/Subscriptions.svg;" parent="1" vertex="1">
          <mxGeometry x="141" y="600" width="44" height="71" as="geometry" />
        </mxCell>
        <mxCell id="VH4T3LfD6t6ZyNMmkm9G-13" style="edgeStyle=orthogonalEdgeStyle;rounded=0;orthogonalLoop=1;jettySize=auto;html=1;" parent="1" source="VH4T3LfD6t6ZyNMmkm9G-4" target="VH4T3LfD6t6ZyNMmkm9G-5" edge="1">
          <mxGeometry relative="1" as="geometry" />
        </mxCell>
        <mxCell id="VH4T3LfD6t6ZyNMmkm9G-14" style="edgeStyle=orthogonalEdgeStyle;rounded=0;orthogonalLoop=1;jettySize=auto;html=1;" parent="1" source="VH4T3LfD6t6ZyNMmkm9G-4" target="VH4T3LfD6t6ZyNMmkm9G-6" edge="1">
          <mxGeometry relative="1" as="geometry" />
        </mxCell>
        <mxCell id="VH4T3LfD6t6ZyNMmkm9G-15" style="edgeStyle=orthogonalEdgeStyle;rounded=0;orthogonalLoop=1;jettySize=auto;html=1;" parent="1" source="VH4T3LfD6t6ZyNMmkm9G-4" target="VH4T3LfD6t6ZyNMmkm9G-7" edge="1">
          <mxGeometry relative="1" as="geometry" />
        </mxCell>
        <mxCell id="VH4T3LfD6t6ZyNMmkm9G-16" style="edgeStyle=orthogonalEdgeStyle;rounded=0;orthogonalLoop=1;jettySize=auto;html=1;" parent="1" source="VH4T3LfD6t6ZyNMmkm9G-4" target="VH4T3LfD6t6ZyNMmkm9G-8" edge="1">
          <mxGeometry relative="1" as="geometry" />
        </mxCell>
        <mxCell id="VH4T3LfD6t6ZyNMmkm9G-4" value="" style="aspect=fixed;html=1;points=[];align=center;image;fontSize=12;image=img/lib/azure2/general/Management_Groups.svg;" parent="1" vertex="1">
          <mxGeometry x="570" y="220" width="66" height="64" as="geometry" />
        </mxCell>
        <mxCell id="VH4T3LfD6t6ZyNMmkm9G-32" style="edgeStyle=orthogonalEdgeStyle;rounded=0;orthogonalLoop=1;jettySize=auto;html=1;" parent="1" source="VH4T3LfD6t6ZyNMmkm9G-5" target="VH4T3LfD6t6ZyNMmkm9G-9" edge="1">
          <mxGeometry relative="1" as="geometry" />
        </mxCell>
        <mxCell id="VH4T3LfD6t6ZyNMmkm9G-33" style="edgeStyle=orthogonalEdgeStyle;rounded=0;orthogonalLoop=1;jettySize=auto;html=1;" parent="1" source="VH4T3LfD6t6ZyNMmkm9G-5" target="VH4T3LfD6t6ZyNMmkm9G-10" edge="1">
          <mxGeometry relative="1" as="geometry" />
        </mxCell>
        <mxCell id="VH4T3LfD6t6ZyNMmkm9G-34" style="edgeStyle=orthogonalEdgeStyle;rounded=0;orthogonalLoop=1;jettySize=auto;html=1;" parent="1" source="VH4T3LfD6t6ZyNMmkm9G-5" target="VH4T3LfD6t6ZyNMmkm9G-11" edge="1">
          <mxGeometry relative="1" as="geometry" />
        </mxCell>
        <mxCell id="VH4T3LfD6t6ZyNMmkm9G-5" value="" style="aspect=fixed;html=1;points=[];align=center;image;fontSize=12;image=img/lib/azure2/general/Management_Groups.svg;" parent="1" vertex="1">
          <mxGeometry x="210" y="380" width="66" height="64" as="geometry" />
        </mxCell>
        <mxCell id="VH4T3LfD6t6ZyNMmkm9G-35" style="edgeStyle=orthogonalEdgeStyle;rounded=0;orthogonalLoop=1;jettySize=auto;html=1;" parent="1" source="VH4T3LfD6t6ZyNMmkm9G-6" target="VH4T3LfD6t6ZyNMmkm9G-23" edge="1">
          <mxGeometry relative="1" as="geometry" />
        </mxCell>
        <mxCell id="VH4T3LfD6t6ZyNMmkm9G-36" style="edgeStyle=orthogonalEdgeStyle;rounded=0;orthogonalLoop=1;jettySize=auto;html=1;" parent="1" source="VH4T3LfD6t6ZyNMmkm9G-6" target="VH4T3LfD6t6ZyNMmkm9G-25" edge="1">
          <mxGeometry relative="1" as="geometry" />
        </mxCell>
        <mxCell id="VH4T3LfD6t6ZyNMmkm9G-37" style="edgeStyle=orthogonalEdgeStyle;rounded=0;orthogonalLoop=1;jettySize=auto;html=1;" parent="1" source="VH4T3LfD6t6ZyNMmkm9G-6" target="VH4T3LfD6t6ZyNMmkm9G-24" edge="1">
          <mxGeometry relative="1" as="geometry" />
        </mxCell>
        <mxCell id="VH4T3LfD6t6ZyNMmkm9G-6" value="" style="aspect=fixed;html=1;points=[];align=center;image;fontSize=12;image=img/lib/azure2/general/Management_Groups.svg;" parent="1" vertex="1">
          <mxGeometry x="502" y="380" width="66" height="64" as="geometry" />
        </mxCell>
        <mxCell id="VH4T3LfD6t6ZyNMmkm9G-7" value="" style="aspect=fixed;html=1;points=[];align=center;image;fontSize=12;image=img/lib/azure2/general/Management_Groups.svg;" parent="1" vertex="1">
          <mxGeometry x="742" y="380" width="66" height="64" as="geometry" />
        </mxCell>
        <mxCell id="VH4T3LfD6t6ZyNMmkm9G-8" value="" style="aspect=fixed;html=1;points=[];align=center;image;fontSize=12;image=img/lib/azure2/general/Management_Groups.svg;" parent="1" vertex="1">
          <mxGeometry x="982" y="380" width="66" height="64" as="geometry" />
        </mxCell>
        <mxCell id="VH4T3LfD6t6ZyNMmkm9G-9" value="" style="aspect=fixed;html=1;points=[];align=center;image;fontSize=12;image=img/lib/azure2/general/Management_Groups.svg;" parent="1" vertex="1">
          <mxGeometry x="130" y="500" width="66" height="64" as="geometry" />
        </mxCell>
        <mxCell id="VH4T3LfD6t6ZyNMmkm9G-10" value="" style="aspect=fixed;html=1;points=[];align=center;image;fontSize=12;image=img/lib/azure2/general/Management_Groups.svg;" parent="1" vertex="1">
          <mxGeometry x="210" y="500" width="66" height="64" as="geometry" />
        </mxCell>
        <mxCell id="VH4T3LfD6t6ZyNMmkm9G-11" value="" style="aspect=fixed;html=1;points=[];align=center;image;fontSize=12;image=img/lib/azure2/general/Management_Groups.svg;" parent="1" vertex="1">
          <mxGeometry x="290" y="500" width="66" height="64" as="geometry" />
        </mxCell>
        <mxCell id="VH4T3LfD6t6ZyNMmkm9G-17" value="Management" style="text;html=1;strokeColor=none;fillColor=none;align=center;verticalAlign=middle;whiteSpace=wrap;rounded=0;fontStyle=1" parent="1" vertex="1">
          <mxGeometry x="118" y="564" width="90" height="30" as="geometry" />
        </mxCell>
        <mxCell id="VH4T3LfD6t6ZyNMmkm9G-18" value="Connectivity" style="text;html=1;strokeColor=none;fillColor=none;align=center;verticalAlign=middle;whiteSpace=wrap;rounded=0;fontStyle=1" parent="1" vertex="1">
          <mxGeometry x="197" y="564" width="90" height="30" as="geometry" />
        </mxCell>
        <mxCell id="VH4T3LfD6t6ZyNMmkm9G-19" value="Security" style="text;html=1;strokeColor=none;fillColor=none;align=center;verticalAlign=middle;whiteSpace=wrap;rounded=0;fontStyle=1" parent="1" vertex="1">
          <mxGeometry x="276" y="564" width="90" height="30" as="geometry" />
        </mxCell>
        <mxCell id="VH4T3LfD6t6ZyNMmkm9G-20" value="" style="aspect=fixed;html=1;points=[];align=center;image;fontSize=12;image=img/lib/azure2/general/Subscriptions.svg;" parent="1" vertex="1">
          <mxGeometry x="221" y="600" width="44" height="71" as="geometry" />
        </mxCell>
        <mxCell id="VH4T3LfD6t6ZyNMmkm9G-21" value="" style="aspect=fixed;html=1;points=[];align=center;image;fontSize=12;image=img/lib/azure2/general/Subscriptions.svg;" parent="1" vertex="1">
          <mxGeometry x="299" y="600" width="44" height="71" as="geometry" />
        </mxCell>
        <mxCell id="VH4T3LfD6t6ZyNMmkm9G-23" value="" style="aspect=fixed;html=1;points=[];align=center;image;fontSize=12;image=img/lib/azure2/general/Management_Groups.svg;" parent="1" vertex="1">
          <mxGeometry x="422" y="500" width="66" height="64" as="geometry" />
        </mxCell>
        <mxCell id="VH4T3LfD6t6ZyNMmkm9G-24" value="" style="aspect=fixed;html=1;points=[];align=center;image;fontSize=12;image=img/lib/azure2/general/Management_Groups.svg;" parent="1" vertex="1">
          <mxGeometry x="502" y="500" width="66" height="64" as="geometry" />
        </mxCell>
        <mxCell id="VH4T3LfD6t6ZyNMmkm9G-25" value="" style="aspect=fixed;html=1;points=[];align=center;image;fontSize=12;image=img/lib/azure2/general/Management_Groups.svg;" parent="1" vertex="1">
          <mxGeometry x="582" y="500" width="66" height="64" as="geometry" />
        </mxCell>
        <mxCell id="VH4T3LfD6t6ZyNMmkm9G-26" value="Corp" style="text;html=1;strokeColor=none;fillColor=none;align=center;verticalAlign=middle;whiteSpace=wrap;rounded=0;fontStyle=1" parent="1" vertex="1">
          <mxGeometry x="410" y="564" width="90" height="30" as="geometry" />
        </mxCell>
        <mxCell id="VH4T3LfD6t6ZyNMmkm9G-27" value="DMZ" style="text;html=1;strokeColor=none;fillColor=none;align=center;verticalAlign=middle;whiteSpace=wrap;rounded=0;fontStyle=1" parent="1" vertex="1">
          <mxGeometry x="489" y="564" width="90" height="30" as="geometry" />
        </mxCell>
        <mxCell id="VH4T3LfD6t6ZyNMmkm9G-28" value="External" style="text;html=1;strokeColor=none;fillColor=none;align=center;verticalAlign=middle;whiteSpace=wrap;rounded=0;fontStyle=1" parent="1" vertex="1">
          <mxGeometry x="568" y="564" width="90" height="30" as="geometry" />
        </mxCell>
        <mxCell id="VH4T3LfD6t6ZyNMmkm9G-39" value="" style="aspect=fixed;html=1;points=[];align=center;image;fontSize=12;image=img/lib/azure2/general/Subscriptions.svg;" parent="1" vertex="1">
          <mxGeometry x="742" y="460" width="44" height="71" as="geometry" />
        </mxCell>
        <mxCell id="VH4T3LfD6t6ZyNMmkm9G-40" value="" style="aspect=fixed;html=1;points=[];align=center;image;fontSize=12;image=img/lib/azure2/general/Subscriptions.svg;" parent="1" vertex="1">
          <mxGeometry x="764" y="480" width="44" height="71" as="geometry" />
        </mxCell>
        <mxCell id="VH4T3LfD6t6ZyNMmkm9G-41" value="" style="aspect=fixed;html=1;points=[];align=center;image;fontSize=12;image=img/lib/azure2/general/Subscriptions.svg;" parent="1" vertex="1">
          <mxGeometry x="786" y="500" width="44" height="71" as="geometry" />
        </mxCell>
        <mxCell id="VH4T3LfD6t6ZyNMmkm9G-45" value="Platform" style="text;html=1;strokeColor=none;fillColor=none;align=center;verticalAlign=middle;whiteSpace=wrap;rounded=0;fontStyle=1" parent="1" vertex="1">
          <mxGeometry x="118" y="380" width="90" height="30" as="geometry" />
        </mxCell>
        <mxCell id="VH4T3LfD6t6ZyNMmkm9G-46" value="Landing Zones" style="text;html=1;strokeColor=none;fillColor=none;align=center;verticalAlign=middle;whiteSpace=wrap;rounded=0;fontStyle=1" parent="1" vertex="1">
          <mxGeometry x="412" y="380" width="90" height="30" as="geometry" />
        </mxCell>
        <mxCell id="VH4T3LfD6t6ZyNMmkm9G-47" value="Decommissioned" style="text;html=1;strokeColor=none;fillColor=none;align=center;verticalAlign=middle;whiteSpace=wrap;rounded=0;fontStyle=1" parent="1" vertex="1">
          <mxGeometry x="645" y="380" width="90" height="30" as="geometry" />
        </mxCell>
        <mxCell id="VH4T3LfD6t6ZyNMmkm9G-48" value="Sandbox" style="text;html=1;strokeColor=none;fillColor=none;align=center;verticalAlign=middle;whiteSpace=wrap;rounded=0;fontStyle=1" parent="1" vertex="1">
          <mxGeometry x="892" y="380" width="90" height="30" as="geometry" />
        </mxCell>
        <mxCell id="VH4T3LfD6t6ZyNMmkm9G-49" value="Gtz4All" style="text;html=1;strokeColor=none;fillColor=none;align=center;verticalAlign=middle;whiteSpace=wrap;rounded=0;fontStyle=1" parent="1" vertex="1">
          <mxGeometry x="630" y="220" width="90" height="30" as="geometry" />
        </mxCell>
        <mxCell id="VH4T3LfD6t6ZyNMmkm9G-50" value="Tenant Root Management Group" style="text;html=1;strokeColor=none;fillColor=none;align=center;verticalAlign=middle;whiteSpace=wrap;rounded=0;fontStyle=1" parent="1" vertex="1">
          <mxGeometry x="636" y="57" width="124" height="30" as="geometry" />
        </mxCell>
        <mxCell id="VH4T3LfD6t6ZyNMmkm9G-51" value="Prod" style="text;html=1;strokeColor=#d6b656;fillColor=#fff2cc;align=center;verticalAlign=middle;whiteSpace=wrap;rounded=0;fontStyle=0;dashed=1;dashPattern=1 1;" parent="1" vertex="1">
          <mxGeometry x="413" y="588" width="90" height="30" as="geometry" />
        </mxCell>
        <mxCell id="VH4T3LfD6t6ZyNMmkm9G-52" value="" style="aspect=fixed;html=1;points=[];align=center;image;fontSize=12;image=img/lib/azure2/identity/Groups.svg;" parent="1" vertex="1">
          <mxGeometry x="473" y="591.76" width="30" height="24.71" as="geometry" />
        </mxCell>
        <mxCell id="VH4T3LfD6t6ZyNMmkm9G-22" value="" style="aspect=fixed;html=1;points=[];align=center;image;fontSize=12;image=img/lib/azure2/general/Subscriptions.svg;" parent="1" vertex="1">
          <mxGeometry x="396" y="588" width="44" height="71" as="geometry" />
        </mxCell>
        <mxCell id="VH4T3LfD6t6ZyNMmkm9G-57" value="Test" style="text;html=1;strokeColor=#d6b656;fillColor=#fff2cc;align=center;verticalAlign=middle;whiteSpace=wrap;rounded=0;fontStyle=0;dashed=1;dashPattern=1 1;" parent="1" vertex="1">
          <mxGeometry x="435" y="620" width="90" height="30" as="geometry" />
        </mxCell>
        <mxCell id="VH4T3LfD6t6ZyNMmkm9G-58" value="" style="aspect=fixed;html=1;points=[];align=center;image;fontSize=12;image=img/lib/azure2/identity/Groups.svg;" parent="1" vertex="1">
          <mxGeometry x="495" y="623.76" width="30" height="24.71" as="geometry" />
        </mxCell>
        <mxCell id="VH4T3LfD6t6ZyNMmkm9G-59" value="" style="aspect=fixed;html=1;points=[];align=center;image;fontSize=12;image=img/lib/azure2/general/Subscriptions.svg;" parent="1" vertex="1">
          <mxGeometry x="418" y="620" width="44" height="71" as="geometry" />
        </mxCell>
        <mxCell id="VH4T3LfD6t6ZyNMmkm9G-63" value="Prod" style="text;html=1;strokeColor=#d6b656;fillColor=#fff2cc;align=center;verticalAlign=middle;whiteSpace=wrap;rounded=0;fontStyle=0;dashed=1;dashPattern=1 1;" parent="1" vertex="1">
          <mxGeometry x="587" y="588" width="90" height="30" as="geometry" />
        </mxCell>
        <mxCell id="VH4T3LfD6t6ZyNMmkm9G-64" value="" style="aspect=fixed;html=1;points=[];align=center;image;fontSize=12;image=img/lib/azure2/identity/Groups.svg;" parent="1" vertex="1">
          <mxGeometry x="647" y="591.76" width="30" height="24.71" as="geometry" />
        </mxCell>
        <mxCell id="VH4T3LfD6t6ZyNMmkm9G-65" value="" style="aspect=fixed;html=1;points=[];align=center;image;fontSize=12;image=img/lib/azure2/general/Subscriptions.svg;" parent="1" vertex="1">
          <mxGeometry x="570" y="588" width="44" height="71" as="geometry" />
        </mxCell>
        <mxCell id="VH4T3LfD6t6ZyNMmkm9G-66" value="Test" style="text;html=1;strokeColor=#d6b656;fillColor=#fff2cc;align=center;verticalAlign=middle;whiteSpace=wrap;rounded=0;fontStyle=0;dashed=1;dashPattern=1 1;" parent="1" vertex="1">
          <mxGeometry x="609" y="620" width="90" height="30" as="geometry" />
        </mxCell>
        <mxCell id="VH4T3LfD6t6ZyNMmkm9G-67" value="" style="aspect=fixed;html=1;points=[];align=center;image;fontSize=12;image=img/lib/azure2/identity/Groups.svg;" parent="1" vertex="1">
          <mxGeometry x="669" y="623.76" width="30" height="24.71" as="geometry" />
        </mxCell>
        <mxCell id="VH4T3LfD6t6ZyNMmkm9G-68" value="" style="aspect=fixed;html=1;points=[];align=center;image;fontSize=12;image=img/lib/azure2/general/Subscriptions.svg;" parent="1" vertex="1">
          <mxGeometry x="592" y="620" width="44" height="71" as="geometry" />
        </mxCell>
        <mxCell id="VH4T3LfD6t6ZyNMmkm9G-69" value="Dev&amp;nbsp;" style="text;html=1;strokeColor=#d6b656;fillColor=#fff2cc;align=center;verticalAlign=middle;whiteSpace=wrap;rounded=0;fontStyle=0;dashed=1;dashPattern=1 1;" parent="1" vertex="1">
          <mxGeometry x="957" y="450" width="90" height="30" as="geometry" />
        </mxCell>
        <mxCell id="VH4T3LfD6t6ZyNMmkm9G-70" value="" style="aspect=fixed;html=1;points=[];align=center;image;fontSize=12;image=img/lib/azure2/identity/Groups.svg;" parent="1" vertex="1">
          <mxGeometry x="1017" y="453.76" width="30" height="24.71" as="geometry" />
        </mxCell>
        <mxCell id="VH4T3LfD6t6ZyNMmkm9G-71" value="" style="aspect=fixed;html=1;points=[];align=center;image;fontSize=12;image=img/lib/azure2/general/Subscriptions.svg;" parent="1" vertex="1">
          <mxGeometry x="940" y="450" width="44" height="71" as="geometry" />
        </mxCell>
        <mxCell id="VH4T3LfD6t6ZyNMmkm9G-72" value="Sbox" style="text;html=1;strokeColor=#d6b656;fillColor=#fff2cc;align=center;verticalAlign=middle;whiteSpace=wrap;rounded=0;fontStyle=0;dashed=1;dashPattern=1 1;" parent="1" vertex="1">
          <mxGeometry x="979" y="482" width="90" height="30" as="geometry" />
        </mxCell>
        <mxCell id="VH4T3LfD6t6ZyNMmkm9G-73" value="" style="aspect=fixed;html=1;points=[];align=center;image;fontSize=12;image=img/lib/azure2/identity/Groups.svg;" parent="1" vertex="1">
          <mxGeometry x="1039" y="485.76" width="30" height="24.71" as="geometry" />
        </mxCell>
        <mxCell id="VH4T3LfD6t6ZyNMmkm9G-74" value="" style="aspect=fixed;html=1;points=[];align=center;image;fontSize=12;image=img/lib/azure2/general/Subscriptions.svg;" parent="1" vertex="1">
          <mxGeometry x="962" y="482" width="44" height="71" as="geometry" />
        </mxCell>
        <mxCell id="jBEAdHfHlLtRoj3dkvwA-9" style="edgeStyle=orthogonalEdgeStyle;rounded=0;orthogonalLoop=1;jettySize=auto;html=1;" edge="1" parent="1" source="jBEAdHfHlLtRoj3dkvwA-1">
          <mxGeometry relative="1" as="geometry">
            <mxPoint x="1234" y="250" as="targetPoint" />
          </mxGeometry>
        </mxCell>
        <mxCell id="jBEAdHfHlLtRoj3dkvwA-1" value="" style="aspect=fixed;html=1;points=[];align=center;image;fontSize=12;image=img/lib/azure2/general/Management_Groups.svg;" vertex="1" parent="1">
          <mxGeometry x="1201" y="390" width="66" height="64" as="geometry" />
        </mxCell>
        <mxCell id="jBEAdHfHlLtRoj3dkvwA-2" value="Sandbox" style="text;html=1;strokeColor=none;fillColor=none;align=center;verticalAlign=middle;whiteSpace=wrap;rounded=0;fontStyle=1" vertex="1" parent="1">
          <mxGeometry x="1111" y="390" width="90" height="30" as="geometry" />
        </mxCell>
        <mxCell id="jBEAdHfHlLtRoj3dkvwA-3" value="Dev&amp;nbsp;" style="text;html=1;strokeColor=#d6b656;fillColor=#fff2cc;align=center;verticalAlign=middle;whiteSpace=wrap;rounded=0;fontStyle=0;dashed=1;dashPattern=1 1;" vertex="1" parent="1">
          <mxGeometry x="1176" y="460" width="90" height="30" as="geometry" />
        </mxCell>
        <mxCell id="jBEAdHfHlLtRoj3dkvwA-4" value="" style="aspect=fixed;html=1;points=[];align=center;image;fontSize=12;image=img/lib/azure2/identity/Groups.svg;" vertex="1" parent="1">
          <mxGeometry x="1236" y="463.76" width="30" height="24.71" as="geometry" />
        </mxCell>
        <mxCell id="jBEAdHfHlLtRoj3dkvwA-5" value="" style="aspect=fixed;html=1;points=[];align=center;image;fontSize=12;image=img/lib/azure2/general/Subscriptions.svg;" vertex="1" parent="1">
          <mxGeometry x="1159" y="460" width="44" height="71" as="geometry" />
        </mxCell>
        <mxCell id="jBEAdHfHlLtRoj3dkvwA-6" value="Sbox" style="text;html=1;strokeColor=#d6b656;fillColor=#fff2cc;align=center;verticalAlign=middle;whiteSpace=wrap;rounded=0;fontStyle=0;dashed=1;dashPattern=1 1;" vertex="1" parent="1">
          <mxGeometry x="1198" y="492" width="90" height="30" as="geometry" />
        </mxCell>
        <mxCell id="jBEAdHfHlLtRoj3dkvwA-7" value="" style="aspect=fixed;html=1;points=[];align=center;image;fontSize=12;image=img/lib/azure2/identity/Groups.svg;" vertex="1" parent="1">
          <mxGeometry x="1258" y="495.76" width="30" height="24.71" as="geometry" />
        </mxCell>
        <mxCell id="jBEAdHfHlLtRoj3dkvwA-8" value="" style="aspect=fixed;html=1;points=[];align=center;image;fontSize=12;image=img/lib/azure2/general/Subscriptions.svg;" vertex="1" parent="1">
          <mxGeometry x="1181" y="492" width="44" height="71" as="geometry" />
        </mxCell>
      </root>
    </mxGraphModel>
  </diagram>
</mxfile>
